<svg 
          width="20" 
          height="18" fill="none" 
          xmlns="http://www.w3.org/2000/svg">
          <path d="M 16 0 L 4 0 C 1.7899999618530273 0 0 1.7799997329711914 0 3.9699997901916504 L 0 14.030000686645508 C 0 16.220000743865967 1.7899999618530273 18 4 18 L 16 18 C 18.210000038146973 18 20 16.220000743865967 20 14.030000686645508 L 20 3.9699997901916504 C 20 1.7799997329711914 18.210000038146973 0 16 0 Z M 6.5 4.170000076293945 C 7.769999980926514 4.170000076293945 8.8100004196167 5.2099995613098145 8.8100004196167 6.479999542236328 C 8.8100004196167 7.749999523162842 7.769999980926514 8.789999961853027 6.5 8.789999961853027 C 5.230000019073486 8.789999961853027 4.190000057220459 7.749999523162842 4.190000057220459 6.479999542236328 C 4.190000057220459 5.2099995613098145 5.230000019073486 4.170000076293945 6.5 4.170000076293945 Z M 10.369999885559082 13.65999984741211 C 10.279999881982803 13.759999848902225 10.140000000596046 13.819999694824219 10 13.819999694824219 L 3 13.819999694824219 C 2.8599999994039536 13.819999694824219 2.7200001180171967 13.759999848902225 2.630000114440918 13.65999984741211 C 2.584220353513956 13.608441889286041 2.5491511039435863 13.548294387757778 2.5268330574035645 13.483057022094727 C 2.5045150108635426 13.417819656431675 2.495393716264516 13.348795972764492 2.5 13.280000686645508 C 2.583585113286972 12.464408338069916 2.9470484852790833 11.702932357788086 3.5286002159118652 11.12502670288086 C 4.110151946544647 10.547121047973633 4.873898148536682 10.188453651964664 5.690000057220459 10.109999656677246 C 6.225502371788025 10.060004971921444 6.764497876167297 10.060004971921444 7.300000190734863 10.109999656677246 C 8.980000138282776 10.269999653100967 10.329999774694443 11.600000739097595 10.489999771118164 13.280000686645508 C 10.50999977067113 13.420000687241554 10.45999988913536 13.559999845921993 10.369999885559082 13.65999984741211 L 10.369999885559082 13.65999984741211 Z M 17 13.75 L 15 13.75 C 14.590000003576279 13.75 14.25 13.409999996423721 14.25 13 C 14.25 12.590000003576279 14.590000003576279 12.25 15 12.25 L 17 12.25 C 17.40999999642372 12.25 17.75 12.590000003576279 17.75 13 C 17.75 13.409999996423721 17.40999999642372 13.75 17 13.75 Z M 17 9.75 L 13 9.75 C 12.590000003576279 9.75 12.25 9.409999996423721 12.25 9 C 12.25 8.590000003576279 12.590000003576279 8.25 13 8.25 L 17 8.25 C 17.40999999642372 8.25 17.75 8.590000003576279 17.75 9 C 17.75 9.409999996423721 17.40999999642372 9.75 17 9.75 Z M 17 5.75 L 12 5.75 C 11.590000003576279 5.75 11.25 5.409999996423721 11.25 5 C 11.25 4.590000003576279 11.590000003576279 4.25 12 4.25 L 17 4.25 C 17.40999999642372 4.25 17.75 4.590000003576279 17.75 5 C 17.75 5.409999996423721 17.40999999642372 5.75 17 5.75 Z" fill="rgb(154.00000602006912,153.00000607967377,153.00000607967377)"/>
        </svg>